<svg width="11" height="19" viewBox="0 0 11 19" fill="none" xmlns="http://www.w3.org/2000/svg">
<path d="M6.78257 18.9629H3.73393C3.22471 18.9629 2.81048 18.5495 2.81048 18.0412V11.1783H1.03185C0.522629 11.1783 0.108398 10.7648 0.108398 10.2567V7.31591C0.108398 6.80769 0.522629 6.39426 1.03185 6.39426H2.81048V4.92163C2.81048 3.46146 3.26988 2.21917 4.13887 1.32927C5.01177 0.43531 6.23166 -0.0371094 7.66666 -0.0371094L9.99169 -0.0333405C10.5 -0.0324707 10.9135 0.380951 10.9135 0.888306V3.61874C10.9135 4.12697 10.4995 4.54039 9.99039 4.54039L8.42496 4.54097C7.94755 4.54097 7.82599 4.6365 7.79999 4.66578C7.75714 4.71434 7.70616 4.85162 7.70616 5.23068V6.39412H9.87274C10.0358 6.39412 10.1939 6.43427 10.3297 6.50994C10.6226 6.67331 10.8048 6.98222 10.8048 7.31606L10.8036 10.2568C10.8036 10.7648 10.3894 11.1782 9.88015 11.1782H7.70616V18.0412C7.70616 18.5495 7.29179 18.9629 6.78257 18.9629ZM3.92652 17.849H6.58998V10.6797C6.58998 10.3403 6.86666 10.0643 7.20653 10.0643H9.68756L9.68857 7.50813H7.20638C6.86652 7.50813 6.58998 7.23213 6.58998 6.89278V5.23068C6.58998 4.79552 6.63427 4.30063 6.96339 3.92867C7.36107 3.479 7.98779 3.42711 8.42467 3.42711L9.7975 3.42653V1.08023L7.66578 1.07675C5.35963 1.07675 3.92652 2.55011 3.92652 4.92163V6.89278C3.92652 7.23198 3.64998 7.50813 3.31012 7.50813H1.22444V10.0643H3.31012C3.64998 10.0643 3.92652 10.3403 3.92652 10.6797V17.849ZM9.98951 1.08052H9.98966H9.98951Z" fill="#7D6C65"/>
</svg>
