<svg width="63" height="63" viewBox="0 0 63 63" fill="none" xmlns="http://www.w3.org/2000/svg">
<circle cx="34.5" cy="28.5" r="28.5" fill="#F4F0EB"/>
<circle cx="29" cy="34" r="28.75" stroke="#BE907E" stroke-width="0.5"/>
<path d="M38.66 41.62V43H24.23V41.92L33.11 33.1C34.27 31.94 35.05 30.95 35.45 30.13C35.87 29.29 36.08 28.43 36.08 27.55C36.08 26.21 35.62 25.16 34.7 24.4C33.8 23.64 32.49 23.26 30.77 23.26C29.45 23.26 28.29 23.46 27.29 23.86C26.31 24.26 25.46 24.87 24.74 25.69L23.66 24.73C24.46 23.81 25.47 23.1 26.69 22.6C27.93 22.1 29.33 21.85 30.89 21.85C32.95 21.85 34.59 22.35 35.81 23.35C37.03 24.35 37.64 25.7 37.64 27.4C37.64 28.48 37.4 29.51 36.92 30.49C36.44 31.47 35.54 32.61 34.22 33.91L26.48 41.62H38.66Z" fill="#DABFB4"/>
</svg>
