<svg width="63" height="63" viewBox="0 0 63 63" fill="none" xmlns="http://www.w3.org/2000/svg">
<circle cx="34.5" cy="28.5" r="28.5" fill="#F4F0EB"/>
<circle cx="29" cy="34" r="28.75" stroke="#BE907E" stroke-width="0.5"/>
<path d="M31.04 31.15C33.36 31.21 35.12 31.78 36.32 32.86C37.54 33.92 38.15 35.33 38.15 37.09C38.15 38.27 37.87 39.32 37.31 40.24C36.75 41.14 35.91 41.85 34.79 42.37C33.69 42.89 32.36 43.15 30.8 43.15C29.28 43.15 27.85 42.9 26.51 42.4C25.17 41.88 24.13 41.19 23.39 40.33L24.17 39.16C24.85 39.92 25.77 40.54 26.93 41.02C28.11 41.5 29.4 41.74 30.8 41.74C32.66 41.74 34.09 41.33 35.09 40.51C36.09 39.67 36.59 38.53 36.59 37.09C36.59 35.63 36.08 34.49 35.06 33.67C34.04 32.85 32.51 32.44 30.47 32.44H29.15V31.33L35.36 23.38H24.17V22H37.34V23.08L31.04 31.15Z" fill="#DABFB4"/>
</svg>
